<?xml version="1.0" encoding="utf-8"?>
<!-- Generator: Adobe Illustrator 27.3.1, SVG Export Plug-In . SVG Version: 6.00 Build 0)  -->
<svg version="1.1" id="Layer_1" xmlns="http://www.w3.org/2000/svg" xmlns:xlink="http://www.w3.org/1999/xlink" x="0px" y="0px"
	 viewBox="0 0 58 58" style="enable-background:new 0 0 58 58;" xml:space="preserve">
<style type="text/css">
	.st0{fill:#FFFFFF;}
</style>
<g>
	<path class="st0" d="M57,28.2c0,6.4,0,12.9,0,19.3c-0.3,0.1-0.2,0.3-0.2,0.5c-0.4,0.8-0.7,1.6-1.4,2.2c-0.8,0.8-1.6,1.3-2.7,1.6
		c-0.7,0.2-1.4,0.1-2.2,0.1c-14.4,0-28.7,0-43.1,0c-0.8,0-1.7,0-2.5-0.2c0-0.2-0.1-0.1-0.2-0.1c-0.6-0.3-1.2-0.6-1.7-1
		c-1.1-1-2-2.2-2-3.7c0-6.1,0-12.2,0-18.3c0-0.5,0.1-0.6,0.6-0.6c5.7,0,11.5,0,17.2,0c0.2,0,0.4,0,0.6,0c0.3,0,0.3,0.1,0.3,0.4
		c0,0.6,0,1.3,0.1,1.9c0.3,2.8,3.1,5.1,5.7,5.1c2.3,0,4.6,0,6.9,0c1.5,0,2.7-0.6,3.8-1.6c1.5-1.3,2.1-3,2-4.9c0-0.9,0-0.9,0.9-0.9
		c5.8,0,11.5,0,17.3,0C56.6,28.2,56.8,28.2,57,28.2z"/>
	<path class="st0" d="M23.5,31.1c0,0.1,0,0.1,0.1,0.1c0.5,0.7,1.1,1.2,2,1.2c2.2,0,4.4,0,6.6,0c0.8,0,1.3-0.3,1.9-0.8
		c1-0.9,1-2.1,0.9-3.2c0-0.2-0.2-0.2-0.3-0.2c-0.6,0-1.2,0-1.7,0c-3.1,0-6.3,0-9.4,0c-0.2,0-0.5-0.2-0.5,0.2
		C23,29.3,22.9,30.2,23.5,31.1z"/>
	<path class="st0" d="M56.9,24.9c-0.2,0-0.4,0-0.7,0c-18.2,0-36.4,0-54.5,0c-0.5,0-0.6-0.1-0.6-0.6c0-1.6,0-3.3,0-4.9
		c0-1.1,0.5-2,1.1-2.8c0.9-1.3,2.3-1.9,3.9-2.2c0.2,0,0.4,0,0.6,0c0,0.4,0.3,0.3,0.6,0.3c3.8,0.1,7.6-0.1,11.4,0.1
		c0.2,0,0.4,0,0.4-0.2c0.1-0.2,0.1-0.4-0.2-0.4c-0.1-1.6-0.1-3.2,0-4.8c0.1-1.2,0.9-2.1,1.9-2.7c0.8-0.5,1.6-0.6,2.5-0.6
		c3.7,0,7.4,0,11.1,0c0.9,0,1.8,0.1,2.6,0.6c1.1,0.7,1.8,1.6,2,3c0.3,1.5,0.1,3.1,0.1,4.6c-0.3,0-0.2,0.2-0.2,0.4
		c0.1,0.3,0.3,0.2,0.5,0.2c1.9,0,3.7,0,5.6,0c1.9,0,3.8,0,5.7,0c0.3,0,0.7,0.1,0.7-0.4c1,0,1.8,0.4,2.7,0.7c0,0,0.1,0.1,0.1,0.1
		c0.8,0.5,1.5,1.2,2,2c0,0,0.1,0.1,0.1,0.1c0.2,0.6,0.4,1.3,0.7,1.9c0,0.2,0,0.4,0,0.5c-0.1,0.1-0.1,0.1,0,0.2c0,1.7,0,3.3,0,5
		C56.9,24.8,56.9,24.8,56.9,24.9z M22.2,14.3c0.7,0,1.3,0,2,0c3.9,0,7.7,0,11.6,0c0.1,0,0.1,0,0.1-0.1c0-1.2,0-2.4,0-3.5
		c0-1.1-0.4-1.4-1.5-1.4c-3.6,0-7.2,0-10.9,0c-0.2,0-0.5,0-0.7,0.1c-0.5,0.1-0.7,0.4-0.7,0.8C22.1,11.5,22.1,12.9,22.2,14.3
		C22.1,14.3,22.2,14.3,22.2,14.3z"/>
	<path class="st0" d="M57,19.8c-0.1-0.1-0.1-0.1,0-0.2C57,19.7,57,19.7,57,19.8z"/>
	<path class="st0" d="M5,51.9c-0.1,0-0.2,0-0.2-0.1C4.9,51.8,5,51.7,5,51.9z"/>
	<path class="st0" d="M23.5,31.1c-0.5-0.8-0.5-1.8-0.5-2.7c0-0.3,0.3-0.2,0.5-0.2c3.1,0,6.3,0,9.4,0c0.6,0,1.2,0,1.7,0
		c0.1,0,0.3,0,0.3,0.2c0,1.2,0.1,2.4-0.9,3.2c-0.5,0.5-1.1,0.8-1.9,0.8c-2.2,0-4.4,0-6.6,0c-0.8,0-1.5-0.5-2-1.2
		C23.5,31.1,23.5,31.1,23.5,31.1z"/>
	<path class="st0" d="M51.4,14.4c0,0.5-0.4,0.4-0.7,0.4c-1.9,0-3.8,0-5.7,0c-1.9,0-3.7,0-5.6,0c-0.2,0-0.4,0-0.5-0.2
		c0-0.2-0.1-0.4,0.2-0.4c0.1,0.4,0.4,0.2,0.6,0.2c3.7,0,7.4,0,11.1,0C51,14.3,51.2,14.4,51.4,14.4z"/>
	<path class="st0" d="M18.9,14.1c0.3,0,0.2,0.2,0.2,0.4c-0.1,0.2-0.3,0.2-0.4,0.2c-3.8-0.2-7.6,0-11.4-0.1c-0.2,0-0.6,0.1-0.6-0.3
		c3.9,0,7.8,0,11.7,0C18.5,14.3,18.8,14.5,18.9,14.1z"/>
	<path class="st0" d="M54.2,15.1C54.2,15.1,54.2,15.1,54.2,15.1C54.2,15,54.2,15,54.2,15.1z"/>
	<path class="st0" d="M56.3,17.2C56.3,17.2,56.2,17.1,56.3,17.2C56.3,17.1,56.3,17.1,56.3,17.2z"/>
	<path class="st0" d="M23.5,31.1c0,0,0.1,0.1,0.1,0.1C23.5,31.2,23.4,31.1,23.5,31.1z"/>
	<path class="st0" d="M22.1,14.2C22.2,14.3,22.2,14.3,22.1,14.2C22.2,14.3,22.1,14.3,22.1,14.2z"/>
	<path class="st0" d="M35.8,14.3C35.8,14.3,35.8,14.3,35.8,14.3C35.9,14.3,35.9,14.3,35.8,14.3z"/>
</g>
</svg>
