<?xml version="1.0" encoding="utf-8"?>
<!-- Generator: Adobe Illustrator 27.3.1, SVG Export Plug-In . SVG Version: 6.00 Build 0)  -->
<svg version="1.1" id="Layer_1" xmlns="http://www.w3.org/2000/svg" xmlns:xlink="http://www.w3.org/1999/xlink" x="0px" y="0px"
	 viewBox="0 0 58 58" style="enable-background:new 0 0 58 58;" xml:space="preserve">
<style type="text/css">
	.st0{fill:#FFFFFF;}
</style>
<g>
	<path class="st0" d="M22.8,0.1c-0.3,0.1-0.5,0-0.8,0.1c0,0.1,0.1,0.1,0.1,0.1c1.8,0.1,3.4,0.5,5.1,1c1.6,0.5,3.1,1.3,4.5,2.2
		c2.4,1.6,4.4,3.6,6,6.1c1.5,2.4,2.5,5,2.9,7.7c0.2,1.3,0.3,2.6,0.2,3.9c0,2.2-0.5,4.2-1.2,6.3c-0.5,1.5-1.2,2.9-2.1,4.2
		C37,32.4,37,32.4,37.6,33s1.3,1.3,1.9,1.9c0.1,0.1,0.2,0.1,0.4,0c0.3-0.3,0.5-0.6,0.9-0.8c0.4-0.3,0.9-0.2,1.3,0
		c0.1,0.1,0.2,0.1,0.3,0.2c4,4,8.1,8.1,12.1,12.1c0.8,0.8,1.6,1.6,2.4,2.5c2.6,3.2,1.1,7.8-2.7,8.9c-2.2,0.7-4.1,0.1-5.7-1.5
		c-3-2.9-5.9-5.9-8.9-8.8c-1.7-1.7-3.4-3.4-5-5.1c-0.8-0.8-0.8-1.3,0-2.2c0,0,0,0,0.1-0.1c0.5-0.5,0.5-0.5,0-0.9
		c-0.7-0.7-1.3-1.3-2-2c-0.1-0.1-0.2-0.2-0.4-0.1c-0.9,0.6-1.8,1.1-2.7,1.6c-1.8,0.9-3.6,1.4-5.6,1.8c-1.6,0.3-3.3,0.3-5,0.2
		c-1.6-0.1-3.1-0.5-4.6-1c-2-0.6-3.8-1.6-5.6-2.8c-3.2-2.2-5.4-5.2-6.9-8.7c-0.7-1.6-1.2-3.3-1.4-5.1c-0.1-0.5,0-1.1-0.1-1.7
		c-0.1,0.4,0,0.9-0.1,1.3c0-1.5,0-3.1,0-4.6c0.1,0.3,0,0.7,0.1,1C0.6,14,2.6,9.6,6.2,6s7.9-5.6,13.1-6c-0.3-0.1-0.5,0-0.8-0.1
		C19.8,0.1,21.3,0.1,22.8,0.1z M20.4,38.6c10,0.1,18.1-8.2,18.1-18.1c0-9.7-7.8-18.2-18.1-18.2c-10.2,0-18,8.2-18.2,17.9
		C2.1,30.5,10.3,38.7,20.4,38.6z M52.2,55.9c1.7,0,3.1-1,3.5-2.5c0.3-1.3,0-2.5-1-3.5c-2.8-2.8-5.6-5.6-8.4-8.4
		c-0.1-0.2-0.2-0.1-0.4,0c-1.5,1.5-2.9,3-4.4,4.4c-0.2,0.2-0.2,0.3,0,0.4c1.1,1.1,2.2,2.1,3.2,3.2c1.7,1.7,3.3,3.4,5,5
		C50.4,55.4,51.3,55.9,52.2,55.9z M44.4,39.7L44.4,39.7c-1.1-1.1-2.1-2-3-3c-0.1-0.1-0.2-0.1-0.3,0c-1.5,1.5-3,3-4.5,4.5
		c-0.1,0.1-0.1,0.2,0,0.3c1,1,2,1.9,2.9,2.9c0.1,0.1,0.2,0.1,0.3,0c1.5-1.5,3-3,4.5-4.5C44.4,39.8,44.4,39.8,44.4,39.7z M38.1,36.6
		C38,36.5,38,36.5,38,36.4c-0.7-0.7-1.4-1.4-2.1-2.1c-0.1-0.1-0.2-0.1-0.3,0c-0.4,0.5-0.9,0.9-1.3,1.3c-0.2,0.1-0.1,0.2,0,0.3
		c0.3,0.3,0.5,0.5,0.8,0.8c0.4,0.4,0.9,0.9,1.3,1.3c0.1,0.1,0.2,0.2,0.3,0C37.2,37.5,37.6,37.1,38.1,36.6C38,36.6,38,36.6,38.1,36.6
		z"/>
	<path class="st0" d="M20.4,36.4c-8.4,0-15.9-6.8-15.8-15.9c0-9.2,7.5-15.8,15.8-15.8c8.5,0,15.8,6.8,15.8,15.8
		C36.3,29.4,29.1,36.3,20.4,36.4z M20.4,34.1c7.4,0.1,13.6-6,13.6-13.7C34,13.3,28.3,7,20.4,6.9c-7.2,0-13.5,5.7-13.6,13.4
		C6.7,28,12.8,34.1,20.4,34.1z"/>
	<path class="st0" d="M21.5,10.3c0,0.5-0.3,0.9-0.8,1.1c-0.4,0.1-0.8,0.1-1.3,0.1c-1.2,0.1-2.3,0.4-3.3,1c-1.9,1.1-3.3,2.6-4.1,4.7
		c-0.1,0.2-0.1,0.3-0.2,0.5c-0.3,0.6-0.9,0.8-1.4,0.6c-0.6-0.2-0.8-0.8-0.6-1.4c0.4-1.1,0.9-2.1,1.6-3c1.3-1.8,3.1-3,5.1-3.8
		c1.2-0.5,2.5-0.7,3.8-0.8C21,9.1,21.5,9.6,21.5,10.3z"/>
	<path class="st0" d="M9.2,21.7c0-0.6,0.5-1.1,1.1-1.1s1.1,0.5,1.1,1.1s-0.5,1.1-1.1,1.1C9.7,22.8,9.2,22.3,9.2,21.7z"/>
</g>
</svg>
